Coordinates
version=1
nRows=60
nColumns=12
inDegrees=yes

Units are S.I. units (second, meters, Newtons, ...)
Angles are in degrees

endheader
time	SC_y	SC_z	SC_x	AC_y	AC_z	AC_x	GH_y	GH_z	GH_yy	EL_x	PS_y
       0.0              -27.55          29.29          29.01          38.64         -5.095          5.452          103.7          25.96          173.8          59.11          103.7
   0.03061              -27.55          29.29          29.01          38.64         -5.097          5.452          103.7          25.97          173.8          59.13          103.7
   0.06122              -27.55          29.28          29.01          38.64         -5.099          5.451          103.7          25.98          173.7          59.14          103.7
   0.09182              -27.55          29.28          29.01          38.64         -5.101           5.45          103.7          25.99          173.7          59.15          103.7
    0.1224              -27.55          29.27          29.01          38.64         -5.103          5.449          103.7           26.0          173.7          59.16          103.7
     0.153              -27.55          29.27          29.01          38.64         -5.106          5.448          103.6          26.02          173.6          59.18          103.7
    0.1836              -27.55          29.26          29.01          38.64         -5.108          5.447          103.6          26.03          173.6          59.19          103.7
    0.2143              -27.55          29.26          29.02          38.65         -5.111          5.445          103.6          26.04          173.5          59.21          103.7
    0.2449              -27.55          29.25          29.02          38.65         -5.114          5.444          103.6          26.06          173.5          59.23          103.6
    0.2755              -27.54          29.24          29.02          38.65         -5.117          5.443          103.5          26.07          173.4          59.24          103.6
    0.3061              -27.54          29.24          29.02          38.65         -5.121          5.441          103.5          26.09          173.4          59.26          103.6
    0.3367              -27.54          29.23          29.02          38.65         -5.124          5.439          103.5          26.11          173.3          59.29          103.6
    0.3673              -27.54          29.22          29.03          38.65         -5.128          5.438          103.4          26.13          173.3          59.31          103.6
    0.3979              -27.54          29.21          29.03          38.65         -5.133          5.436          103.4          26.15          173.2          59.33          103.6
    0.4285              -27.54           29.2          29.03          38.65         -5.137          5.434          103.4          26.17          173.1          59.36          103.5
    0.4591              -27.54          29.19          29.04          38.66         -5.142          5.432          103.3          26.19          173.0          59.39          103.5
    0.4897              -27.53          29.18          29.04          38.66         -5.148          5.429          103.3          26.22          172.9          59.42          103.5
    0.5203              -27.53          29.17          29.04          38.66         -5.154          5.427          103.2          26.25          172.8          59.46          103.5
    0.5509              -27.53          29.16          29.05          38.66          -5.16          5.424          103.1          26.28          172.7          59.49          103.5
    0.5815              -27.53          29.14          29.05          38.66         -5.167          5.421          103.1          26.31          172.6          59.54          103.4
    0.6122              -27.53          29.13          29.06          38.67         -5.175          5.417          103.0          26.35          172.5          59.58          103.4
    0.6428              -27.52          29.11          29.06          38.67         -5.184          5.413          102.9          26.39          172.3          59.63          103.3
    0.6734              -27.52          29.09          29.07          38.67         -5.193          5.409          102.8          26.44          172.2          59.69          103.3
     0.704              -27.52          29.07          29.07          38.68         -5.204          5.404          102.7          26.49          172.0          59.75          103.3
    0.7346              -27.51          29.04          29.08          38.68         -5.216          5.399          102.6          26.55          171.8          59.82          103.2
    0.7652              -27.51          29.02          29.09          38.68         -5.229          5.394          102.5          26.61          171.6          59.89          103.2
    0.7958               -27.5          28.99           29.1          38.69         -5.244          5.387          102.4          26.68          171.4          59.98          103.1
    0.8264               -27.5          28.95          29.11          38.69          -5.26           5.38          102.2          26.76          171.1          60.07          103.0
     0.857              -27.49          28.92          29.12           38.7         -5.279          5.372          102.1          26.85          170.8          60.18          102.9
    0.8876              -27.48          28.87          29.13          38.71           -5.3          5.362          101.9          26.96          170.4           60.3          102.9
    0.9182              -27.48          28.82          29.15          38.71         -5.324          5.352          101.6          27.07          170.0          60.44          102.8
    0.9488              -27.47          28.77          29.16          38.72         -5.352           5.34          101.4          27.21          169.6          60.61          102.6
    0.9795              -27.46           28.7          29.18          38.73         -5.384          5.325          101.1          27.36          169.0          60.79          102.5
      1.01              -27.44          28.63          29.21          38.75         -5.421          5.309          100.7          27.54          168.4          61.01          102.3
     1.041              -27.43          28.54          29.23          38.76         -5.465           5.29          100.3          27.76          167.7          61.26          102.2
     1.071              -27.41          28.43          29.27          38.78         -5.516          5.267          99.87           28.0          166.9          61.56          101.9
     1.102              -27.39          28.31           29.3           38.8         -5.577          5.241           99.3           28.3          165.9          61.91          101.7
     1.132              -27.37          28.16          29.35          38.82         -5.651          5.208          98.63          28.65          164.7          62.34          101.4
     1.163              -27.34          27.98           29.4          38.85         -5.739           5.17          97.81          29.08          163.2          62.85          101.0
     1.194              -27.31          27.76          29.47          38.88         -5.847          5.122          96.82          29.61          161.4          63.48          100.5
     1.224              -27.26          27.49          29.55          38.93         -5.981          5.063          95.59          30.25          159.2          64.25          99.95
     1.255              -27.21          27.15          29.66          38.98         -6.147           4.99          94.06          31.06          156.5          65.22          99.24
     1.286              -27.14          26.73          29.79          39.05         -6.357          4.898          92.13          32.08          153.0          66.44          98.34
     1.316              -27.05          26.19          29.95          39.13         -6.624          4.781          89.67          33.37          148.6          67.98           97.2
     1.347              -26.94          25.49          30.16          39.24         -6.965          4.631          86.53          35.02          143.0          69.96          95.75
     1.377               -26.8           24.6          30.43          39.38         -7.403          4.439           82.5          37.14          135.8           72.5          93.88
     1.408              -26.61          23.47          30.78          39.56         -7.963          4.194          77.35          39.85          126.6          75.75          91.49
     1.439              -26.39          22.04          31.21          39.79         -8.666          3.885          70.88          43.26          115.0          79.83          88.48
     1.469              -26.11           20.3          31.74          40.06         -9.524          3.508          62.99          47.41          100.9           84.8          84.82
       1.5              -25.78          18.28          32.35          40.38         -10.52          3.072          53.84          52.22          84.48          90.56          80.58
      1.53              -25.43           16.1          33.02          40.73         -11.59            2.6          43.94          57.43          66.76           96.8          75.99
     1.561              -25.08          13.91          33.68          41.08         -12.67          2.128          34.04          62.64          49.03          103.0          71.39
     1.592              -24.75           11.9          34.29           41.4         -13.66          1.691          24.89          67.45          32.66          108.8          67.15
     1.622              -24.47          10.16          34.82          41.67         -14.52          1.315           17.0           71.6          18.54          113.8          63.49
     1.653              -24.24          8.728          35.26           41.9         -15.22          1.006          10.53          75.01          6.947          117.9          60.49
     1.683              -24.06          7.592           35.6          42.08         -15.78         0.7606          5.377          77.72          -2.27          121.1           58.1
     1.714              -23.92          6.703          35.87          42.22         -16.22         0.5683          1.346          79.84         -9.486          123.6          56.23
     1.745              -23.81           6.01          36.08          42.33         -16.56         0.4185         -1.795          81.49         -15.11          125.6          54.77
     1.775              -23.72          5.469          36.25          42.41         -16.83         0.3014         -4.249          82.78          -19.5          127.2          53.63
     1.806              -23.65          5.043          36.38          42.48         -17.04         0.2093          -6.18           83.8         -22.96          128.4          52.74
